<svg width="209" height="41" viewBox="0 0 209 41" fill="none" xmlns="http://www.w3.org/2000/svg">
<path d="M31.6467 18.2831C30.4723 19.437 29.8854 21.0419 30.0457 22.6613L30.0181 22.6344C30.1829 24.54 29.479 26.4197 28.0942 27.772C26.7095 29.1243 24.7847 29.8117 22.8333 29.6508L22.8609 29.6777C20.4982 29.463 18.2513 30.718 17.243 32.8157C16.2346 34.9134 16.6815 37.4033 18.3601 39.0412C20.0388 40.679 22.5888 41.1131 24.7359 40.1265C26.883 39.14 28.1662 36.9446 27.9441 34.6374L27.9732 34.6643C27.8085 32.7587 28.5124 30.879 29.8971 29.5267C31.2819 28.1744 33.2066 27.487 35.158 27.6478L35.129 27.6209C37.7256 27.849 40.1419 26.3028 40.9643 23.8867C41.7868 21.4707 40.7994 18.8195 38.5798 17.4839C36.3601 16.1483 33.4913 16.4792 31.6513 18.2831H31.6467Z" fill="#5454D4"/>
<path d="M20.3552 26.153L20.3261 26.1261C21.9854 26.2894 23.6321 25.7164 24.8117 24.5652C25.9914 23.4141 26.5794 21.8064 26.4135 20.1859L26.4426 20.2128C26.2778 18.3071 26.9817 16.4275 28.3665 15.0752C29.7512 13.7228 31.676 13.0355 33.6274 13.1963L33.5983 13.1694C35.9612 13.3861 38.2095 12.1324 39.2193 10.035C40.2292 7.93762 39.7837 5.44702 38.1055 3.80818C36.4273 2.16933 33.877 1.73426 31.7292 2.72044C29.5815 3.70661 28.2977 5.90221 28.5196 8.20974L28.4921 8.18134C28.6574 10.0871 27.9537 11.9671 26.5688 13.3196C25.1839 14.672 23.2588 15.3592 21.3073 15.1978L21.3348 15.2262C19.6755 15.063 18.0289 15.636 16.8492 16.7871C15.6695 17.9383 15.0815 19.5459 15.2474 21.1665L15.2199 21.1396C15.3841 23.0451 14.68 24.9245 13.2954 26.2766C11.9108 27.6288 9.98631 28.3164 8.03505 28.1561L8.06261 28.183C5.69971 27.9663 3.45143 29.2199 2.44159 31.3173C1.43175 33.4147 1.87727 35.9053 3.55543 37.5442C5.2336 39.183 7.78396 39.6181 9.93169 38.6319C12.0794 37.6458 13.3632 35.4502 13.1413 33.1426L13.1704 33.1695C13.0056 31.2639 13.7095 29.3842 15.0943 28.0319C16.479 26.6796 18.4038 25.9922 20.3552 26.153V26.153Z" fill="#FF7143"/>
<path d="M10.0968 23.153C11.2714 21.9993 11.8579 20.3941 11.6963 18.7748L11.7254 18.8017C11.5606 16.8955 12.2648 15.0153 13.6503 13.6628C15.0358 12.3104 16.9614 11.6234 18.9133 11.7852L18.8842 11.7583C21.2463 11.9744 23.4935 10.7209 24.5027 8.62413C25.5119 6.52739 25.0665 4.03778 23.3889 2.39954C21.7114 0.761294 19.162 0.326249 17.015 1.31183C14.8679 2.2974 13.5843 4.49195 13.8056 6.79867L13.778 6.77176C13.9427 8.67743 13.2388 10.5571 11.8541 11.9094C10.4693 13.2617 8.54456 13.9491 6.59317 13.7882L6.62072 13.8152C4.02414 13.5878 1.60843 15.1344 0.78645 17.5504C-0.035528 19.9665 0.952144 22.6173 3.17181 23.9526C5.39147 25.2879 8.26008 24.9568 10.0999 23.153H10.0968Z" fill="#5454D4"/>
<path d="M57.5116 8.24414H62.0576V29.8482H57.5116V8.24414Z" fill="#19191B"/>
<path fill-rule="evenodd" clip-rule="evenodd" d="M69.5676 15.1821C66.5676 16.406 64.6191 19.2755 64.6321 22.4505C64.6164 24.5324 65.4585 26.5331 66.969 28.0024C68.4796 29.4716 70.5316 30.286 72.6634 30.2622C75.9147 30.2622 78.8452 28.3479 80.0864 25.4133C81.3275 22.4786 80.6345 19.1027 78.3309 16.8621C76.0273 14.6215 72.5676 13.9582 69.5676 15.1821ZM72.5988 19.1401C74.5117 19.1056 76.0957 20.5828 76.1487 22.4504C76.2003 23.3763 75.8531 24.2811 75.1911 24.9457C74.529 25.6104 73.6125 25.9744 72.6634 25.9497C70.7502 25.9498 69.1942 24.4444 69.1765 22.5761C69.1588 20.7078 70.686 19.1745 72.5988 19.1401Z" fill="#19191B"/>
<path fill-rule="evenodd" clip-rule="evenodd" d="M98.8129 29.1022V15.0513L94.3878 15.0483V16.558C93.3083 15.2681 91.6666 14.5544 89.9627 14.6342C85.8063 14.7622 82.5048 18.0897 82.5048 22.1507C82.5048 26.2117 85.8063 29.5392 89.9627 29.6672C91.6666 29.7471 93.3083 29.0333 94.3878 27.7434V29.0962C94.4639 29.9887 94.1205 30.8667 93.4546 31.4824C92.7886 32.0982 91.8722 32.3851 90.9638 32.2621C89.5268 32.4054 88.1498 31.6624 87.5091 30.3982L83.6305 32.588C85.1479 35.0025 87.9194 36.3869 90.8122 36.1755C94.8424 36.1755 98.8129 34.0738 98.8129 29.1022ZM92.2292 18.7332C93.5967 19.3355 94.4519 20.6893 94.3893 22.153C94.4176 23.0981 94.0354 24.0109 93.337 24.6658C92.6387 25.3208 91.6893 25.6568 90.7235 25.591C89.2233 25.5928 87.8728 24.7036 87.3119 23.3448C86.751 21.986 87.0925 20.4307 88.1745 19.416C89.2565 18.4013 90.8616 18.131 92.2292 18.7332Z" fill="#19191B"/>
<path fill-rule="evenodd" clip-rule="evenodd" d="M106.323 15.1821C103.323 16.406 101.374 19.2755 101.387 22.4505C101.372 24.5324 102.214 26.5331 103.724 28.0024C105.235 29.4716 107.287 30.286 109.419 30.2622C112.67 30.2622 115.6 28.3479 116.842 25.4133C118.083 22.4786 117.39 19.1027 115.086 16.8621C112.783 14.6215 109.323 13.9582 106.323 15.1821ZM109.354 19.1401C111.267 19.1056 112.851 20.5828 112.904 22.4504C112.956 23.3763 112.608 24.2811 111.946 24.9457C111.284 25.6104 110.368 25.9744 109.419 25.9497C107.506 25.9498 105.95 24.4444 105.932 22.5761C105.914 20.7078 107.441 19.1745 109.354 19.1401Z" fill="#19191B"/>
<path fill-rule="evenodd" clip-rule="evenodd" d="M121.254 8.62484C120.235 9.03713 119.57 10.0084 119.57 11.0858C119.585 12.5508 120.797 13.7349 122.298 13.7495C123.401 13.7495 124.395 13.1005 124.818 12.1051C125.24 11.1098 125.006 9.96406 124.226 9.20225C123.446 8.44044 122.273 8.21255 121.254 8.62484ZM124.577 15.0513H120.029L120.023 29.8496H124.577V15.0513Z" fill="#19191B"/>
<path fill-rule="evenodd" clip-rule="evenodd" d="M142.247 27.8272C143.607 26.3609 144.312 24.4258 144.206 22.4505C144.313 20.4748 143.608 18.5391 142.249 17.0724C140.889 15.6057 138.986 14.7293 136.963 14.6373C135.257 14.5464 133.6 15.2088 132.449 16.4415V15.0513H127.903V35.7675H132.449V28.4565C133.599 29.6901 135.257 30.3531 136.963 30.2622C138.986 30.1698 140.888 29.2934 142.247 27.8272ZM135.994 19.0174C137.974 18.985 139.61 20.5174 139.66 22.4504C139.728 23.411 139.374 24.3545 138.685 25.0439C137.997 25.7333 137.04 26.1031 136.055 26.0603C134.075 26.0605 132.465 24.5017 132.448 22.5682C132.432 20.6348 134.015 19.0497 135.994 19.0174Z" fill="#19191B"/>
<path d="M158.234 25.4087C158.234 28.8123 155.205 30.2622 151.932 30.2622C149.227 30.5015 146.645 29.1063 145.416 26.7405L149.355 24.5506C149.683 25.652 150.755 26.3796 151.926 26.2965C153.016 26.2965 153.562 25.9707 153.562 25.3803C153.562 23.7509 146.107 24.6104 146.107 19.4908C146.107 16.2636 148.896 14.6373 152.047 14.6373C154.46 14.5627 156.724 15.7756 157.955 17.8032L154.077 19.8451C153.729 19.0527 152.93 18.54 152.047 18.5431C151.259 18.5431 150.774 18.8421 150.774 19.3712C150.78 21.0588 158.234 19.9333 158.234 25.4087Z" fill="#19191B"/>
<path d="M174.84 15.0514V29.8497H170.294V28.4581C169.23 29.7037 167.619 30.3753 165.962 30.2637C162.901 30.2637 160.299 28.1337 160.299 24.1352V15.0514H164.845V23.4849C164.768 24.1983 165.016 24.9086 165.524 25.4269C166.032 25.9452 166.747 26.219 167.481 26.1755C169.147 26.1755 170.299 25.2293 170.299 23.1277V15.0559L174.84 15.0514Z" fill="#19191B"/>
<path d="M200.907 20.7629V29.8482H196.361V21.1471C196.361 19.6673 195.634 18.7211 194.18 18.7211C192.664 18.7211 191.815 19.7569 191.815 21.5028V29.8482H187.27V21.1471C187.27 19.6673 186.543 18.7211 185.088 18.7211C183.572 18.7211 182.724 19.7569 182.724 21.5028V29.8482H178.178V15.0499H182.724V16.4101C183.682 15.184 185.211 14.5159 186.785 14.6358C188.367 14.5603 189.874 15.3014 190.754 16.588C191.778 15.243 193.437 14.5058 195.149 14.6358C198.628 14.6373 200.907 17.0634 200.907 20.7629Z" fill="#19191B"/>
<path d="M204.752 14.9602C206.615 14.9602 208.125 13.4852 208.125 11.6657C208.125 9.84621 206.615 8.37122 204.752 8.37122C202.889 8.37122 201.378 9.84621 201.378 11.6657C201.378 13.4852 202.889 14.9602 204.752 14.9602Z" fill="#19191B"/>
</svg>
